<?xml version="1.0" encoding="UTF-8" standalone="no"?>
<svg
   xmlns:dc="http://purl.org/dc/elements/1.1/"
   xmlns:cc="http://creativecommons.org/ns#"
   xmlns:rdf="http://www.w3.org/1999/02/22-rdf-syntax-ns#"
   xmlns:svg="http://www.w3.org/2000/svg"
   xmlns="http://www.w3.org/2000/svg"
   viewBox="0 0 2465.9468 1935.04"
   height="1935.04"
   width="2465.9468"
   xml:space="preserve"
   id="svg2"
   version="1.1"><metadata
     id="metadata8"><rdf:RDF><cc:Work
         rdf:about=""><dc:format>image/svg+xml</dc:format><dc:type
           rdf:resource="http://purl.org/dc/dcmitype/StillImage" /></cc:Work></rdf:RDF></metadata><defs
     id="defs6"><clipPath
       id="clipPath20"
       clipPathUnits="userSpaceOnUse"><path
         id="path18"
         d="M 0,0 H 14665.7 V 11508 H 0 Z" /></clipPath></defs><g
     transform="matrix(1.3333333,0,0,-1.3333333,0,1935.04)"
     id="g10"><g
       transform="scale(0.126108)"
       id="g12"><g
         id="g14"><g
           clip-path="url(#clipPath20)"
           id="g16"><path
             id="path22"
             style="fill:#f58794;fill-opacity:1;fill-rule:nonzero;stroke:none"
             d="m 10807.1,7851.93 c 0,-1871.16 -1516.87,-3388.06 -3388.04,-3388.06 -1871.17,0 -3388.07,1516.9 -3388.07,3388.06 0,1871.16 1516.9,3388.07 3388.07,3388.07 1871.17,0 3388.04,-1516.91 3388.04,-3388.07" /><path
             id="path24"
             style="fill:#da6a26;fill-opacity:1;fill-rule:nonzero;stroke:none"
             d="m 5635.13,6697.95 272.46,-70.36 c 0,0 -952.86,-601.61 -2336.76,-1031.55 -1383.87,-429.89 -1794.78,-383.37 -1974.39,-396.01 -179.54,-12.66 -54.69,175.38 518.67,163.14 0,0 -356.61,-40.93 -179.85,115.66 176.63,156.6 121.13,-253.38 1630.22,276.78 1509.08,530.13 2062.46,860.99 2069.65,942.34" /><path
             id="path26"
             style="fill:#da6a26;fill-opacity:1;fill-rule:nonzero;stroke:none"
             d="m 6189.06,6712.46 302.6,-30.47 c 0,0 -827.68,-712.88 -2120.89,-1315.74 -1293.16,-602.77 -1712.98,-612.02 -1889.57,-648.26 -176.64,-36.17 -90.64,163.7 484.25,227.97 0,0 -347.59,-87.32 -203.34,88.76 144.25,176.07 172.98,-230.79 1570.59,486.33 1397.55,717.16 1865.88,1111.14 1856.36,1191.41" /><path
             id="path28"
             style="fill:#da6a26;fill-opacity:1;fill-rule:nonzero;stroke:none"
             d="m 4058.09,5827.17 c 9.75,-61.04 -35.36,-118.99 -100.78,-129.48 -65.46,-10.44 -126.44,30.54 -136.18,91.58 -9.79,61.02 35.39,118.97 100.83,129.46 65.41,10.47 126.36,-30.53 136.13,-91.56" /><path
             id="path30"
             style="fill:#da6a26;fill-opacity:1;fill-rule:nonzero;stroke:none"
             d="m 4710.73,5570.5 c 9.76,-61 -35.39,-118.96 -100.85,-129.45 -65.42,-10.46 -126.4,30.54 -136.16,91.55 -9.74,61.01 35.42,119 100.83,129.45 65.46,10.47 126.41,-30.53 136.18,-91.55" /><path
             id="path32"
             style="fill:#1d3749;fill-opacity:1;fill-rule:nonzero;stroke:none"
             d="m 8384.9,9804.69 54,-58.23 c 0,0 1063.61,746.34 1077.89,759.44 14.19,13.2 46.23,130.9 -42.43,84 -88.73,-46.8 -1089.46,-785.21 -1089.46,-785.21" /><path
             id="path34"
             style="fill:#1d3749;fill-opacity:1;fill-rule:nonzero;stroke:none"
             d="m 8294.58,9857.69 c 0,0 -173.51,149.91 -191.9,207.41 -18.4,57.5 601.78,519.5 692.9,611.3 91.19,91.8 220.68,147.1 232.42,27.4 11.66,-119.9 79.14,-230.9 79.14,-230.9 l -812.56,-615.21" /><path
             id="path36"
             style="fill:#87cabf;fill-opacity:1;fill-rule:nonzero;stroke:none"
             d="m 8384.9,9804.69 774.33,565.71 -52.09,102.5 -812.56,-615.21 90.32,-53" /><path
             id="path38"
             style="fill:#87cabf;fill-opacity:1;fill-rule:nonzero;stroke:none"
             d="m 6057.73,7174.49 c 11.61,-1.3 23.3,-2.35 35.01,-3.6 40.12,-2.01 80.29,-3.98 120.52,-4.55 96.78,-1.23 193.76,-0.11 290.28,7.94 65.33,5.43 130.59,12.34 195.51,21.88 28.15,6.8 81.14,19.1 103.36,26.39 37.92,12.5 75.92,25.06 113.08,40.1 38.53,15.73 76.81,32.26 114.54,49.99 5.08,2.8 9.66,5.42 13.39,7.56 50.01,29.55 99.37,60.34 147.98,92.3 -92.59,400.1 225.75,1252.92 339.73,1547.57 334.91,865.73 -882.74,1393.03 -1347.56,2265.33 -109.46,205.5 -198.62,286.6 -262.76,282.7 -180.09,-10.7 -162.68,-691.4 156.78,-1166.6 -154.46,172.9 -375.66,392.2 -498.35,384.9 -39.73,-2.4 -69.05,-28.5 -82.49,-87.7 -80.75,-355.5 320.82,-762.26 461.75,-895.17 -51.71,48.57 -131.91,123.88 -131.91,123.88 0,0 -239.73,207.59 -362.86,200.29 -117.09,-7 -128.56,-208.76 272.56,-969.51 0,0 -153.49,118.04 -238.77,112.97 -33.22,-2 -56.14,-22.62 -55.66,-76.04 1.65,-190.87 91.69,-403.66 173.7,-480.62 0,0 -25.76,8.88 -59,6.88 -122.5,-7.33 -346.62,-161.79 240.28,-1447.93 86.53,-16.05 173.52,-29.34 260.89,-38.96" /><path
             id="path40"
             style="fill:#d8e3ed;fill-opacity:1;fill-rule:nonzero;stroke:none"
             d="m 5317.24,11357.1 c -178.21,-28.4 -99.58,-667.3 260.9,-1082 -169.17,147 -408.94,330.8 -530.26,311.4 -39.3,-6.2 -66.15,-33.8 -74.16,-90.9 -48.27,-342.8 387.64,-684.67 539.85,-795.42 -55.84,40.43 -142.4,103.09 -142.4,103.09 0,0 -257.13,171.01 -378.88,151.58 -115.87,-18.53 -109.15,-209.6 358.32,-884.71 0,0 -163.25,95.48 -247.66,81.98 -32.88,-5.22 -53.73,-26.97 -48.49,-77.23 18.79,-179.44 127.59,-370.55 216,-434.62 0,0 -26.4,5.67 -59.26,0.43 -125.11,-19.96 -343.91,-198.64 440.69,-1453.99 0,0 -58.16,-15.38 -152.69,-30.51 -145.18,-23.2 -376.16,-45.83 -615.12,-11.36 -285.48,41.14 -575.97,142.58 -656.85,129.66 -43.66,-6.99 -26.13,-47.37 86.42,-148.71 0,0 -120.82,1.75 -241.3,-17.52 -148.28,-23.68 -295.99,-79.25 -217.7,-209 141.87,-235.26 531.25,-225.11 531.25,-225.11 0,0 -215.67,-118.15 -138.87,-272.57 16.25,-32.66 65.31,-37.68 136.22,-26.33 96.89,15.49 234.49,61.55 384.83,109.67 150.31,48.07 313.35,98.22 461.02,121.84 108.19,17.29 208.03,20.41 288.76,-1.91 180.05,-49.86 776.65,-145.4 1409.84,-44.1 709.46,113.46 1464.81,473.97 1732.2,1422.58 237.42,842.39 170.25,975.07 459.53,1037.99 453.42,98.56 505.28,263.29 553.1,453.35 l -73.19,457.52 c 0,0 -267.48,223.7 -561.11,176.7 -146.94,-23.5 -300.3,-114.64 -430.11,-335.25 -389.43,-661.79 171.84,-1313.93 -970.96,-2116.27 -170.33,-119.59 -303.89,-181.14 -407.21,-197.67 -590.03,-94.37 -198.24,1275.78 -81.76,1663.33 255.2,848.91 -1003.35,1221.06 -1544.12,1994.76 -127.43,182.2 -223.37,249.4 -286.83,239.3" /><path
             id="path42"
             style="fill:#d8e3ed;fill-opacity:1;fill-rule:nonzero;stroke:none"
             d="m 9345.19,10567.7 c 29.1,-181.9 -68.04,-227.3 -68.04,-227.3 -17.84,3.6 -71.52,3.9 -144.16,-7.7 -179.69,-28.7 -475.15,-130.6 -628.11,-436.7 -214.82,-429.91 80.88,-972.21 533.43,-1049.05 118.62,-20.15 220.84,-18.31 307.59,-4.43 244.24,39.05 365.24,173.71 380.55,181.67 20.62,10.73 108.24,69.55 108.24,69.55 l 139.17,529.74 c -24.98,436.32 -461.36,597.82 -461.36,597.82 26.65,16 27.92,105.5 27.13,143.7 -11.5,-55.6 -146.7,-95.7 -146.7,-95.7 128.37,177.3 -47.74,298.4 -47.74,298.4 m 193.88,-185.4 c 0,0 0.32,-6.7 0.56,-17.3 1.18,5.6 1.03,11.4 -0.56,17.3" /><path
             id="path44"
             style="fill:#f58794;fill-opacity:1;fill-rule:nonzero;stroke:none"
             d="m 9370.4,9359.93 c 12.61,-78.83 -41.15,-152.99 -119.97,-165.61 -78.82,-12.61 -152.97,41.09 -165.66,119.93 -12.6,78.83 41.08,153.02 119.98,165.63 78.82,12.62 153.05,-41.09 165.65,-119.95" /><path
             id="path46"
             style="fill:#1d3749;fill-opacity:1;fill-rule:nonzero;stroke:none"
             d="m 9452.87,9614.73 c 0,0 -101.5,354.44 -301.57,143.32 0,0 -107.92,0.91 -98.16,33.2 0,0 12.21,-76.77 75.33,-76.64 0,0 -95.4,-46.79 -126.17,-20.2 0,0 10.87,-67.88 100.24,-46.98 0,0 0.63,-66.19 23.94,-107.27 0,0 1.35,214.14 138.38,226.14 136.94,11.94 188.01,-151.57 188.01,-151.57" /><path
             id="path48"
             style="fill:#ba3c25;fill-opacity:1;fill-rule:nonzero;stroke:none"
             d="m 9755.87,9090.41 c 0,0 -28.47,229.63 -121.25,314.14 l 3187.98,-1039.8 -3066.73,725.66" /><path
             id="path50"
             style="fill:#1d3749;fill-opacity:1;fill-rule:nonzero;stroke:none"
             d="m 9229.81,10421.1 c 21.89,-26 67.72,-9.6 97.77,-25.4 -313.38,-221.1 -888.68,-649.24 -888.68,-649.24 l -54,58.23 c 0,0 521.46,384.81 844.91,616.41" /><path
             id="path52"
             style="fill:#1d3749;fill-opacity:1;fill-rule:nonzero;stroke:none"
             d="m 8294.58,9857.69 c 0,0 -173.51,149.91 -191.9,207.41 -18.4,57.5 601.78,519.5 692.9,611.3 91.19,91.8 220.68,147.1 232.42,27.4 11.66,-119.9 79.14,-230.9 79.14,-230.9 l -812.56,-615.21" /><path
             id="path54"
             style="fill:#87cabf;fill-opacity:1;fill-rule:nonzero;stroke:none"
             d="m 8384.9,9804.69 774.33,565.71 -52.09,102.5 -812.56,-615.21 90.32,-53" /><path
             id="path56"
             style="fill:#1d3749;fill-opacity:1;fill-rule:nonzero;stroke:none"
             d="m 11809.7,6310.57 c -32.7,-132.52 -174.4,-211.58 -316.5,-176.56 l -1338.7,330.04 c -142.1,34.97 -230.76,170.87 -198.09,303.38 l 814.89,3305.37 c 32.6,132.6 174.3,211.6 316.4,176.6 l 1338.7,-330.01 c 142.1,-35.04 230.8,-170.87 198.1,-303.42 l -814.8,-3305.4" /><path
             id="path58"
             style="fill:#87cabf;fill-opacity:1;fill-rule:nonzero;stroke:none"
             d="m 11741.1,6669.86 -1556.9,383.21 689.1,2799.45 1557,-383.24 -689.2,-2799.42" /><path
             id="path60"
             style="fill:#87cabf;fill-opacity:1;fill-rule:nonzero;stroke:none"
             d="m 11959.1,9751.13 -550.9,133.22 22.4,92.58 550.9,-133.22 -22.4,-92.58" /><path
             id="path62"
             style="fill:#87cabf;fill-opacity:1;fill-rule:nonzero;stroke:none"
             d="m 11073.6,6539.99 c -23,-95.29 -118.9,-153.86 -214.2,-130.83 -95.3,23.07 -153.8,118.98 -130.8,214.24 23,95.3 119,153.86 214.2,130.81 95.3,-23.03 153.9,-118.94 130.8,-214.22" /><path
             id="path64"
             style="fill:#da6a26;fill-opacity:1;fill-rule:nonzero;stroke:none"
             d="m 9621.14,9402.88 c 0,0 203.72,32.58 353.91,213.32 l 3138.55,-632.34 c 0,0 -3238.71,325.25 -3492.46,419.02" /><path
             id="path66"
             style="fill:#fcd9b4;fill-opacity:1;fill-rule:nonzero;stroke:none"
             d="m 11989.2,7958.79 c -59.1,-371.48 -428.8,-621.43 -825.6,-558.25 -396.8,63.15 -670.5,415.5 -611.4,787.02 59.1,371.49 428.7,621.39 825.6,558.21 396.8,-63.15 670.6,-415.49 611.4,-786.98" /><path
             id="path68"
             style="fill:#f89dab;fill-opacity:1;fill-rule:nonzero;stroke:none"
             d="m 11897.8,7967.24 c -13,-81.38 -89.5,-136.88 -170.8,-123.93 -81.5,12.98 -137,89.47 -124,170.85 12.9,81.41 89.4,136.9 170.8,123.95 81.5,-12.94 136.9,-89.45 124,-170.87" /><path
             id="path70"
             style="fill:#f89dab;fill-opacity:1;fill-rule:nonzero;stroke:none"
             d="m 10952.4,7931.78 c -13,-81.39 -89.5,-136.89 -170.9,-123.93 -81.4,12.97 -136.9,89.47 -123.9,170.85 13,81.44 89.5,136.93 170.8,123.96 81.5,-12.95 136.9,-89.46 124,-170.88" /><path
             id="path72"
             style="fill:#8f7151;fill-opacity:1;fill-rule:nonzero;stroke:none"
             d="m 11093.3,8164.55 c -23.6,70.96 -78.2,113.47 -153.8,109.64 -60.1,-3.07 -122.6,-44.65 -135.7,-104.89 -6,-27.12 36.5,-33.73 42.4,-6.75 8.7,39.95 51.8,61.19 88.7,67.83 59.4,10.71 100.6,-28.15 118.3,-81.4 8.8,-26.3 48.8,-10.67 40.1,15.57 v 0" /><path
             id="path74"
             style="fill:#8f7151;fill-opacity:1;fill-rule:nonzero;stroke:none"
             d="m 10974.7,7799.63 c 16.6,-60.08 66.2,-96.27 127.8,-98.87 44.4,-1.86 102,15.49 118.5,61.51 9.2,25.92 -29.9,43.84 -39.1,17.78 -11.1,-30.56 -52,-37.73 -80.5,-36.51 -44.7,1.86 -75,29.61 -86.5,71.64 -7.4,26.69 -47.4,10.93 -40.2,-15.55 v 0" /><path
             id="path76"
             style="fill:#8f7151;fill-opacity:1;fill-rule:nonzero;stroke:none"
             d="m 11678.8,8194.58 c -23.5,70.93 -78.2,113.46 -153.8,109.63 -60,-3.07 -122.5,-44.63 -135.7,-104.91 -5.9,-27.07 36.6,-33.69 42.4,-6.74 8.8,39.96 51.9,61.2 88.8,67.82 59.4,10.73 100.6,-28.13 118.3,-81.38 8.7,-26.3 48.8,-10.66 40,15.58 v 0" /><path
             id="path78"
             style="fill:#8f7151;fill-opacity:1;fill-rule:nonzero;stroke:none"
             d="m 11088.1,8659.38 c 149.5,42.94 329.7,179.46 215,347.49 -47.7,70 -139.9,58.11 -192.7,2.86 -68.2,-71.43 -1.6,-144.59 73.5,-163.39 35.6,-8.94 44.3,47.42 8.9,56.28 -61.5,15.42 -67.4,64.87 -9,91.58 68.9,31.53 105.6,-65.97 97.9,-118.37 -13.1,-88.79 -138.6,-141.59 -214.3,-163.34 -35.3,-10.13 -14.5,-63.2 20.7,-53.11 v 0" /><path
             id="path80"
             style="fill:#8f7151;fill-opacity:1;fill-rule:nonzero;stroke:none"
             d="m 11295.5,8694.36 c 112.8,0.18 265.1,59.82 218.5,199.57 -19.4,58.57 -86.3,68.68 -134.2,40.52 -62.1,-36.43 -30.2,-101.2 18.6,-129.39 24,-13.87 41.9,25.21 18.1,38.95 -38.8,22.36 -33.3,56.64 11.6,63.49 53.1,8.11 58.9,-65.92 43.5,-100.07 -26.5,-58.64 -123.7,-70.2 -180.1,-70.32 -27.6,-0.04 -23.4,-42.83 4,-42.75 v 0" /><path
             id="path82"
             style="fill:#408a82;fill-opacity:1;fill-rule:nonzero;stroke:none"
             d="m 8890.26,8253.54 c 0,0 403.7,141.5 569.83,-628.04 0,0 -556.75,43.81 -575.78,593.81" /><path
             id="path84"
             style="fill:#87cabf;fill-opacity:1;fill-rule:nonzero;stroke:none"
             d="m 8808.34,8391.2 c 0,0 104.91,96.4 -121.32,215.07 -226.32,118.69 -340.98,68.09 -367.31,-33.17 -26.4,-101.2 -247.08,-203.97 288.49,-420.44 0,0 -33.15,-38.34 111.25,-19.37 0,0 -266.99,-315.11 143.53,-897.83 0,0 330.11,533.41 93.09,892.06 0,0 42.03,239.57 -147.73,263.68" /><path
             id="path86"
             style="fill:#1d3749;fill-opacity:1;fill-rule:nonzero;stroke:none"
             d="m 8904.93,8006.85 c -27.28,-18.76 -34.1,-56.13 -15.38,-83.37 18.79,-27.28 56.06,-34.18 83.41,-15.44 27.2,18.78 34.1,56.1 15.39,83.37 -18.8,27.25 -56.06,34.21 -83.42,15.44" /><path
             id="path88"
             style="fill:#1d3749;fill-opacity:1;fill-rule:nonzero;stroke:none"
             d="m 8680.52,8528.08 c -27.28,-18.77 -34.18,-56.12 -15.47,-83.41 18.8,-27.27 56.15,-34.14 83.43,-15.4 27.27,18.79 34.17,56.11 15.38,83.37 -18.72,27.29 -56.06,34.2 -83.34,15.44" /><path
             id="path90"
             style="fill:#1d3749;fill-opacity:1;fill-rule:nonzero;stroke:none"
             d="m 8475.45,8525.41 c -27.27,-18.74 -34.17,-56.07 -15.46,-83.34 18.8,-27.28 56.14,-34.2 83.42,-15.44 27.28,18.76 34.18,56.1 15.39,83.37 -18.8,27.29 -56.07,34.18 -83.35,15.41" /><path
             id="path92"
             style="fill:#1d3749;fill-opacity:1;fill-rule:nonzero;stroke:none"
             d="m 9299.75,7812.82 c -27.28,-18.78 -34.1,-56.14 -15.38,-83.41 18.79,-27.28 56.06,-34.15 83.34,-15.39 27.36,18.76 34.25,56.07 15.46,83.38 -18.79,27.25 -56.14,34.19 -83.42,15.42" /><path
             id="path94"
             style="fill:#1d3749;fill-opacity:1;fill-rule:nonzero;stroke:none"
             d="m 8762.04,8303.79 c -27.36,-18.75 -34.18,-56.14 -15.47,-83.39 18.8,-27.28 56.14,-34.17 83.42,-15.38 27.28,18.74 34.18,56.05 15.39,83.34 -18.72,27.26 -56.07,34.2 -83.34,15.43" /><path
             id="path96"
             style="fill:#1d3749;fill-opacity:1;fill-rule:nonzero;stroke:none"
             d="m 8884.23,8090 c 1.27,33.09 -24.42,60.97 -57.57,62.32 -33.07,1.27 -60.9,-24.51 -62.25,-57.54" /><path
             id="path98"
             style="fill:#1d3749;fill-opacity:1;fill-rule:nonzero;stroke:none"
             d="m 8636.03,8175.77 c 14.59,29.71 2.3,65.67 -27.51,80.22 -29.74,14.52 -65.66,2.2 -80.18,-27.53" /><path
             id="path100"
             style="fill:#1d3749;fill-opacity:1;fill-rule:nonzero;stroke:none"
             d="m 8400.12,8299.88 c 14.51,29.75 2.22,65.67 -27.51,80.23 -29.74,14.53 -65.66,2.19 -80.17,-27.49" /><path
             id="path102"
             style="fill:#1d3749;fill-opacity:1;fill-rule:nonzero;stroke:none"
             d="m 8344.54,8549.45 c 30.13,-13.66 65.65,-0.24 79.29,29.92 13.64,30.18 0.24,65.69 -29.89,79.31" /><path
             id="path104"
             style="fill:#1d3749;fill-opacity:1;fill-rule:nonzero;stroke:none"
             d="m 8698.04,7937.27 c -27.28,-18.77 -34.09,-56.13 -15.38,-83.41 18.79,-27.27 56.06,-34.15 83.34,-15.4 27.28,18.78 34.18,56.09 15.46,83.37 -18.79,27.23 -56.14,34.21 -83.42,15.44" /><path
             id="path106"
             style="fill:#1d3749;fill-opacity:1;fill-rule:nonzero;stroke:none"
             d="m 9067.89,8184.62 c -27.21,-18.74 -34.1,-56.09 -15.31,-83.35 18.71,-27.31 56.06,-34.18 83.26,-15.47 27.36,18.8 34.26,56.11 15.46,83.39 -18.71,27.27 -56.06,34.22 -83.41,15.43" /><path
             id="path108"
             style="fill:#1d3749;fill-opacity:1;fill-rule:nonzero;stroke:none"
             d="m 8915,7759.33 c -27.28,-18.76 -34.1,-56.11 -15.38,-83.37 18.79,-27.28 56.06,-34.17 83.34,-15.42 27.27,18.76 34.25,56.09 15.46,83.36 -18.79,27.28 -56.14,34.19 -83.42,15.43" /><path
             id="path110"
             style="fill:#1d3749;fill-opacity:1;fill-rule:nonzero;stroke:none"
             d="m 9117.21,7972.43 c -27.28,-18.77 -34.1,-56.13 -15.39,-83.36 18.8,-27.32 56.07,-34.2 83.34,-15.42 27.29,18.76 34.18,56.04 15.39,83.36 -18.71,27.25 -56.07,34.19 -83.34,15.42" /><path
             id="path112"
             style="fill:#1d3749;fill-opacity:1;fill-rule:nonzero;stroke:none"
             d="m 8730.39,7706.29 c -27.27,-18.76 -34.17,-56.11 -15.46,-83.34 18.8,-27.32 56.14,-34.2 83.42,-15.43 27.28,18.77 34.18,56.07 15.39,83.37 -18.72,27.24 -56.07,34.18 -83.35,15.4" /><path
             id="path114"
             style="fill:#1d3749;fill-opacity:1;fill-rule:nonzero;stroke:none"
             d="m 8850.69,7503.86 c -27.28,-18.75 -34.18,-56.11 -15.39,-83.38 18.8,-27.31 56.07,-34.16 83.35,-15.43 27.28,18.78 34.17,56.08 15.38,83.35 -18.71,27.29 -56.06,34.2 -83.34,15.46" /><path
             id="path116"
             style="fill:#f58794;fill-opacity:1;fill-rule:nonzero;stroke:none"
             d="m 616.051,3444.36 c -127.992,-11.98 -231.992,12.05 -231.992,-160.02 0,-219.97 -28.012,-444.07 -28.012,-664.04 0,-40.05 0,-76.05 3.996,-116.01 19.996,-284.04 44,-584.11 44,-864.18 0,-19.98 24.016,-255.97 76.023,-255.97 35.993,-4.05 72.02,-8.01 108.004,-8.01 316.047,0 596.06,228.05 596.06,556.03 0,184.05 -120,472.05 -292.028,556.11 -140.024,67.96 -324.028,0 -324.028,227.98 0,19.98 4.004,40.05 11.996,60.03 112.024,288.09 360.055,100.07 360.055,404.02 0,148.05 -64.016,272.07 -228.043,272.07 -32.008,0 -64.004,-3.97 -96.031,-8.01 z M 588.07,1020.08 c -104.007,0 -208.031,4.05 -308.035,24.03 -184.0272,39.96 -192.0194,111.97 -220.0272,280 C 3.99609,1672.14 0,2028.19 0,2380.27 c 0,211.96 52.0078,1124.12 116.004,1276.11 76.035,180.05 496.07,204.04 668.094,204.04 332.042,0 572.082,-192.01 572.082,-536.04 0,-212.04 -36.03,-412.11 -216.04,-552.07 244.04,-204.03 404.05,-520.11 404.05,-840.15 0,-496.01 -360.06,-912.08 -868.096,-912.08 H 588.07" /><path
             id="path118"
             style="fill:#f58794;fill-opacity:1;fill-rule:nonzero;stroke:none"
             d="m 2447.64,2092.18 c -60.01,72 -152.04,172.08 -252.02,172.08 -180.03,0 -248.05,-320.05 -248.05,-460.09 0,-116.01 28,-288.01 176.02,-288.01 208.03,0 324.05,363.98 324.05,532.01 z m 31.99,396.09 c 0,3.96 4.03,11.98 4.03,16.02 0,39.96 -12.02,75.96 -12.02,116.01 0,99.99 132.02,99.99 204.03,99.99 116.01,0 200.01,-27.99 200.01,-160.02 0,-60.02 -15.98,-120.06 -24,-180 -20.01,-152.02 -28,-304.03 -28,-456.12 0,-216.01 11.99,-564.04 308.05,-564.04 244,0 284.02,388.08 284.02,560.07 0,55.99 -4.01,152.02 -4.01,208 0,104.04 4.01,148.05 128.04,148.05 132,0 132,-63.99 132,-180.01 0,-83.97 -19.98,-172.07 -19.98,-256.04 0,-372.07 -44,-804.08 -504.1,-804.08 -284.03,0 -432.03,116.01 -572.04,356.04 -96.03,-160.02 -228.02,-320.04 -432.04,-320.04 -332.07,0 -548.09,312.04 -548.09,624.07 0,288.01 4,568.09 204.03,796.06 72.02,84.06 172.02,148.06 284.03,148.06 200.03,0 232.02,-44.02 396.04,-152.02" /><path
             id="path120"
             style="fill:#f58794;fill-opacity:1;fill-rule:nonzero;stroke:none"
             d="m 3747.76,2056.18 c 0,-188.01 36,-376.03 52.02,-564.04 103.99,-60.03 224.01,-120.06 348.04,-120.06 256.03,0 380.04,248.05 380.04,476.1 0,235.99 -176.02,400.06 -408.06,400.06 -88.01,0 -372.04,-84.06 -372.04,-192.06 z m -220.05,-808.04 c -91.99,95.95 -191.99,1272.09 -191.99,1472.15 0,144.01 8.02,860.08 208.01,860.08 52,0 276.05,-28.01 276.05,-100.01 0,-168.03 -116.02,-332.02 -116.02,-512.02 0,-148.05 4,-300.07 16,-448.11 0,-11.98 0,-39.97 20,-39.97 44,0 256.04,96.03 428.06,96.03 428.04,0 716.09,-396.09 716.09,-800.11 0,-384.04 -292.05,-724.06 -688.09,-724.06 -172.03,0 -544.04,72 -668.11,196.02" /><path
             id="path122"
             style="fill:#f58794;fill-opacity:1;fill-rule:nonzero;stroke:none"
             d="m 5907.26,492.039 c 0,39.969 -3.99,83.977 -8,124.024 -60.01,-48.055 -124.01,-148.051 -124.01,-227.981 0,-32.035 20.01,-52.019 52.02,-52.019 79.99,0 79.99,99.992 79.99,155.976 z M 5355.2,2316.27 c -40.02,-172.07 -68.03,-356.04 -68.03,-536.13 0,-183.96 28.01,-444.06 268.06,-444.06 284.02,0 300.03,352.08 300.03,560.16 0,63.99 -4.01,131.95 -4.01,195.94 0,124.02 -35.99,244.08 -35.99,368.1 0,116.01 51.98,268.02 192.01,268.02 160.01,0 208.03,-148.05 208.03,-284.04 0,-96.03 -20.01,-188.01 -20.01,-284.04 0,-292.05 28,-580.06 28,-872.11 228.05,188.01 432.07,444.06 432.07,752.13 0,103.96 16.02,252.01 152,252.01 112.05,0 160.06,-72 160.06,-176.04 0,-324.01 -128.06,-668.08 -360.04,-900.1 -104.06,-104.04 -236.06,-176.05 -336.08,-288.012 12,-72.004 16.02,-148.051 16.02,-220.051 C 6287.32,388.082 6275.3,0 5855.26,0 5603.2,0 5443.21,171.996 5443.21,420.039 c 0,251.926 208.01,451.992 420.03,556.031 v 168.03 c -72,-91.98 -212.02,-124.02 -324,-124.02 -500.09,0 -600.1,492.04 -600.1,892.1 0,180 0,816.12 264.04,816.12 108,0 192.02,-99.99 192.02,-204.03 0,-72 -24.01,-140.04 -40,-208" /><path
             id="path124"
             style="fill:#87cabf;fill-opacity:1;fill-rule:nonzero;stroke:none"
             d="m 6957,1956.19 c 0,-172 4,-464.05 240.04,-464.05 188.01,0 304.03,244 304.03,408.06 0,160.02 -88.03,352 -272.03,352 -144,0 -272.04,-160.02 -272.04,-296.01 z m -364.04,-892.1 v 100 c 0,344.07 8.02,1708.22 332.03,1708.22 76.01,0 128.02,-68.04 128.02,-140.04 0,-44.01 -20.01,-88.02 -24.01,-132.03 l 12.02,-11.97 c 116,0 220.02,55.98 336.01,55.98 368.07,0 532.08,-404.02 532.08,-720.1 0,-296.02 -172.01,-648.02 -440.04,-788.06 -80.02,-44.01 -168.03,-52.02 -256.03,-52.02 -136.02,0 -180.04,75.97 -260.04,88.02 -4,-24.02 -4,-44 -4,-68.03 0,-208.001 31.98,-412.033 31.98,-620.029 0,-88.019 -15.99,-171.996 -123.98,-171.996 -260.05,0 -264.04,512.024 -264.04,752.055" /><path
             id="path126"
             style="fill:#87cabf;fill-opacity:1;fill-rule:nonzero;stroke:none"
             d="m 8721.12,2328.25 c -191.98,0 -307.99,-256.05 -307.99,-420.04 0,-232.02 39.96,-440.1 288.01,-524.07 27.99,-8.01 55.98,-16.02 84.05,-16.02 204.03,0 296.02,296.01 296.02,460.08 0,224.01 -91.99,500.05 -360.09,500.05 z m 32.03,384.04 c 260.02,0 524.08,-188.02 644.06,-416.08 l 12.05,-23.94 c 55.98,-104.04 115.93,-216.09 252.01,-216.09 212.04,0 127.98,240.03 300.06,240.03 95.97,0 155.97,-80.01 155.97,-172 0,-180 -216,-416.07 -400.05,-416.07 -91.98,0 -176.04,28 -260.02,60.03 0,-404.02 -280.07,-720.1 -692.1,-720.1 -436.06,0 -716.06,392.05 -716.06,800.11 0,400.06 256.06,864.11 704.08,864.11" /><path
             id="path128"
             style="fill:#87cabf;fill-opacity:1;fill-rule:nonzero;stroke:none"
             d="m 10165.3,1848.18 c 0,-164.06 36,-400.05 248,-400.05 236,0 324,308.07 324,500.05 0,171.99 -75.9,400.05 -284,400.05 -208,0 -288,-335.98 -288,-500.05 z m 352,856.1 c 712.1,0 488.1,-720.1 868.1,-720.1 276.1,0 132.1,312.03 352.1,312.03 84,0 108,-75.96 108,-144 0,-119.98 -72,-307.99 -160,-392.05 -76.1,-72 -208.1,-96.03 -308.1,-96.03 -88,0 -176,32.04 -248,80.01 -44,-368.01 -284.1,-680.05 -680.1,-680.05 -188,0 -284,3.96 -428,136 -160.05,144 -260.04,388.08 -260.04,604.08 0,444.07 268.04,900.11 756.04,900.11" /><path
             id="path130"
             style="fill:#87cabf;fill-opacity:1;fill-rule:nonzero;stroke:none"
             d="m 12641.5,2436.25 c 84.1,160.02 248,208 416.1,208 380,0 520,-368.02 520,-692.03 0,-76.04 -12,-156.06 -12,-232.02 0,-184.05 96,-360.09 300,-360.09 180,0 372.1,168.03 372.1,352.08 0,180 -128,320.04 -128,451.99 0,124.02 140,204.03 252,204.03 208,0 304,-256.05 304,-432.01 0,-520.03 -388,-868.15 -900.1,-868.15 -224,0 -464,132.04 -556,340.11 -48.1,111.97 -80,436.06 -80,564.04 0,28 8,60.03 8,88.02 0,91.99 -80,204.04 -180,204.04 -140.1,0 -224,-152.1 -224,-276.04 0,-84.05 19.9,-164.06 19.9,-248.04 0,-127.98 -40,-224.02 -184,-224.02 -104,0 -260,24.03 -260,160.03 0,123.94 31.9,240.03 31.9,364.05 0,115.93 -39.9,288.01 -187.9,288.01 -168.1,0 -236.1,-212.04 -236.1,-348.04 0,-268.02 136,-516.07 136,-784.09 0,-84.05 -64,-104.04 -136,-104.04 -32,0 -64,4.05 -96,11.98 -96,27.99 -124,120.05 -160,204.03 -108,268.02 -292.1,1048.15 -292.1,1332.2 0,152.01 76.1,216 224.1,216 224,0 236,-111.97 236,-304.03 80,100 268,168.03 396,168.03 164.1,0 368.1,-120.05 416.1,-284.04" /></g></g></g></g></svg>